<svg id="join-the-community-illustration" xmlns="http://www.w3.org/2000/svg" xmlns:xlink="http://www.w3.org/1999/xlink" width="334.01" height="249.31" viewBox="0 0 334.01 249.31">
  <defs>
    <clipPath id="clip-path">
      <rect id="Rectangle_1784" data-name="Rectangle 1784" width="334.01" height="249.31" fill="none"/>
    </clipPath>
    <clipPath id="clip-path-2">
      <rect id="Rectangle_1766" data-name="Rectangle 1766" width="334.009" height="249.31" fill="none"/>
    </clipPath>
    <clipPath id="clip-path-3">
      <rect id="Rectangle_1764" data-name="Rectangle 1764" width="11.946" height="14.858" fill="none"/>
    </clipPath>
    <clipPath id="clip-path-4">
      <rect id="Rectangle_1765" data-name="Rectangle 1765" width="64.672" height="85.054" fill="none"/>
    </clipPath>
    <clipPath id="clip-path-5">
      <path id="Path_11555" data-name="Path 11555" d="M145.9,213.148s-22.251,4.245-30.89,6.885-22.675,24.6-25.245,28.689S93.211,286.8,93.211,286.8c7.289,4.127,19.522,6.052,29.567,3.576s37.045-15.582,56.35-29.317,24.944-19.511,24.944-19.511,8.2-12.557-2.361-19.944c-1.319-.923-1.351-11.344-3.6-12.08A44.328,44.328,0,0,0,184.87,207.9c-17.165,0-38.967,5.249-38.967,5.249" transform="translate(-89.129 -207.899)" fill="none"/>
    </clipPath>
    <clipPath id="clip-path-6">
      <rect id="Rectangle_1767" data-name="Rectangle 1767" width="77.678" height="48.113" fill="none"/>
    </clipPath>
    <clipPath id="clip-path-8">
      <path id="Path_11575" data-name="Path 11575" d="M89.965,203.49c-17.881,4.126-22.833,57.424-16.78,69.976,2.848,5.907,9.14,8.526,15,9.646.249,1.48.4,2.354.4,2.354,7.289,4.127,19.522,6.052,29.567,3.576s37.045-15.582,56.35-29.317,24.944-19.511,24.944-19.511,8.2-12.557-2.362-19.944c-1.55-1.084-5.54-10.948-8.5-11.737-17.228-4.583-51.978,4.376-51.978,4.376s1.416,25.6-6.4,28.983c-.147-1.141-.328-2.12-.488-2.916,0,0-7.84-5.364-8.39-10.315s.413-12.792-1.925-17.606a32.707,32.707,0,0,0-21.833-8.446,33.7,33.7,0,0,0-7.6.881" transform="translate(-70.727 -202.609)" fill="none"/>
    </clipPath>
    <clipPath id="clip-path-9">
      <rect id="Rectangle_1769" data-name="Rectangle 1769" width="75.284" height="86.66" fill="none"/>
    </clipPath>
    <clipPath id="clip-path-11">
      <rect id="Rectangle_1770" data-name="Rectangle 1770" width="59.724" height="15.878" fill="none"/>
    </clipPath>
    <clipPath id="clip-path-12">
      <path id="Path_11581" data-name="Path 11581" d="M164.443,235.734s-34.936,14-35.872,18.045c-.941,4.065,7.466,8.331,12.175,8.088,3.007-.156,45.7-18.614,48.18-19.806s5.135-4.127,4.584-7.336-10.984-6.694-10.984-6.694Z" transform="translate(-128.499 -228.031)" fill="none"/>
    </clipPath>
    <clipPath id="clip-path-13">
      <rect id="Rectangle_1772" data-name="Rectangle 1772" width="81.719" height="44.222" fill="none"/>
    </clipPath>
    <clipPath id="clip-path-15">
      <path id="Path_11585" data-name="Path 11585" d="M178.552,171.251c-1.264.55-2.751,1.743-5.685,2.11-1.485.186-9.937-.288-18.826-.761-8.679-.461-17.776-.923-21.211-.772a19.752,19.752,0,0,1,5.467,6.6,13.613,13.613,0,0,0,6.969,6.09c6.969-.792,27.448-5.179,29.251-5.011s2.843,2.843,4.584,3.117,4.716.661,5.318.41a14.563,14.563,0,0,1,3.484-.685c.826,0-.156-2.2-2.7-1.7a4.336,4.336,0,0,1-3.489-.842c-.443-.332-.2-.766.482-.956,1.1-.306,2.74-.737,3.785-.906a7.882,7.882,0,0,1,4.631,1.238c.5.413,2.017,2.155,2.476,2.476a1.817,1.817,0,0,0,1.788.37c.78-.278-.412-1.562-1.466-3.442a3.774,3.774,0,0,0-.443-.614l.425.319c1.259.427,1.24-.312,1.24-.312s-.825-1.467-1.009-1.742a1.78,1.78,0,0,0-.264-.256l.009.005s-.6-1.217-.773-1.492a4.817,4.817,0,0,0-1.668-1.448,5.1,5.1,0,0,0-.541-.212h0a1.3,1.3,0,0,0-.232-.747c-.275-.493-4.573-1.607-5.4-1.791a2.278,2.278,0,0,0-.456-.034,22.247,22.247,0,0,0-5.745.988" transform="translate(-132.831 -170.263)" fill="none"/>
    </clipPath>
    <clipPath id="clip-path-16">
      <rect id="Rectangle_1774" data-name="Rectangle 1774" width="59.231" height="7.125" fill="none"/>
    </clipPath>
    <clipPath id="clip-path-18">
      <path id="Path_11595" data-name="Path 11595" d="M16.305,143.055,18.254,171.4S55.94,190.06,61.442,196.112s39.889,2,39.889,2a28.13,28.13,0,0,0,14.029-6.4c4.981-4.164,7.7-13.548,7.7-13.548a20.551,20.551,0,0,1-3.976-4.915c-1.834-3.117-10.6-15.189-12.436-17.023s-13.388-13.572-20.4-17.257L42.759,123.94c-21.709,1.278-26.454,19.115-26.454,19.115" transform="translate(-16.305 -123.94)" fill="none"/>
    </clipPath>
    <clipPath id="clip-path-19">
      <rect id="Rectangle_1776" data-name="Rectangle 1776" width="83.443" height="77.025" fill="none"/>
    </clipPath>
    <clipPath id="clip-path-21">
      <rect id="Rectangle_1777" data-name="Rectangle 1777" width="83.756" height="137.381" fill="none"/>
    </clipPath>
    <clipPath id="clip-path-22">
      <rect id="Rectangle_1778" data-name="Rectangle 1778" width="27.215" height="16.742" fill="none"/>
    </clipPath>
    <clipPath id="clip-path-23">
      <rect id="Rectangle_1779" data-name="Rectangle 1779" width="26.294" height="20.859" fill="none"/>
    </clipPath>
    <clipPath id="clip-path-24">
      <rect id="Rectangle_1780" data-name="Rectangle 1780" width="15.463" height="43.118" fill="none"/>
    </clipPath>
    <clipPath id="clip-path-25">
      <path id="Path_11630" data-name="Path 11630" d="M16.305,143.055,18.254,171.4S55.94,190.06,61.442,196.112s37.137-1.237,37.137-1.237,21.254,21.7,33.867,23.984c8.485-2.8,16.2-8.259,18.813-11.264.1-.276.183-.552.256-.827,7.123-6.573,14.807-15.092,17.072-16.041a41.742,41.742,0,0,1,6.329-1.951c3.21-.917,6.511-5.456,7.7-5.961a7.715,7.715,0,0,1,2.247-.687c.5.092,1.5.315,2.2.367,1.107.083.428-.938-.367-1.4a9.276,9.276,0,0,0-1.043-.517c1.719-.149,1.78-.9,1.822-1.245.046-.366-1.008-.687-1.466-.917a11.027,11.027,0,0,0-2.343-.625l.463-.1c1.743-.4,1.683-1.57,1.087-1.662-.3-.046-1.521-.2-2.745-.332l.618-.14c.281-.205.261-.742-.061-.833a22.774,22.774,0,0,0-2.888-.815,23.023,23.023,0,0,0-4.814.288,20.175,20.175,0,0,0-3.539,2.182h0c.277-.822-.071-2.376-.622-2.443s-.963,1.064-1.375,1.623-3.451,2.49-4.185,3.192-1.742,3.883-2.384,4.892c-.453.712-10.28,4.489-19.7,8.639a2.917,2.917,0,0,0-1.894-.157c-2.589.963-9.881,3.772-9.881,3.772s-20.794-32.289-30.979-42.226c-1.856-1.811-6.307-5.989-19.445-13.791S42.759,123.94,42.759,123.94c-21.709,1.278-26.454,19.115-26.454,19.115" transform="translate(-16.305 -123.94)" fill="none"/>
    </clipPath>
    <clipPath id="clip-path-26">
      <rect id="Rectangle_1782" data-name="Rectangle 1782" width="40.626" height="27.693" fill="none"/>
    </clipPath>
  </defs>
  <g id="Group_2099" data-name="Group 2099" clip-path="url(#clip-path)">
    <g id="Group_2041" data-name="Group 2041">
      <g id="Group_2040" data-name="Group 2040" clip-path="url(#clip-path-2)">
        <g id="Group_2036" data-name="Group 2036" transform="translate(226.773 166.182)" opacity="0.3" style="mix-blend-mode: luminosity;isolation: isolate">
          <g id="Group_2035" data-name="Group 2035">
            <g id="Group_2034" data-name="Group 2034" clip-path="url(#clip-path-3)">
              <ellipse id="Ellipse_25" data-name="Ellipse 25" cx="7.069" cy="4.081" rx="7.069" ry="4.081" transform="matrix(0.5, -0.866, 0.866, 0.5, -1.096, 11.511)" fill="none" stroke="#e00" stroke-miterlimit="10" stroke-width="2.602"/>
            </g>
          </g>
        </g>
        <g id="Group_2039" data-name="Group 2039" transform="translate(17.785 123.134)" opacity="0.3" style="mix-blend-mode: luminosity;isolation: isolate">
          <g id="Group_2038" data-name="Group 2038">
            <g id="Group_2037" data-name="Group 2037" clip-path="url(#clip-path-4)">
              <ellipse id="Ellipse_26" data-name="Ellipse 26" cx="4.081" cy="7.069" rx="4.081" ry="7.069" transform="translate(51.63 3.347) rotate(-29.998)" fill="none" stroke="#e00" stroke-miterlimit="10" stroke-width="2.602"/>
              <path id="Path_11549" data-name="Path 11549" d="M71.741,256.04,25.05,229.083V197.254l46.691,26.957Z" transform="translate(-24.076 -172.674)" fill="none" stroke="#e00" stroke-miterlimit="10" stroke-width="2.602"/>
            </g>
          </g>
        </g>
        <path id="Path_11550" data-name="Path 11550" d="M60.5,274.4c7.193,4.292,19.377,6.5,29.476,4.252s37.393-14.731,57.007-28.019A356.419,356.419,0,0,1,180,230.443a22.632,22.632,0,0,0-9.535-18.743c-10.39-7.627-74.516,13.743-83.213,16.185s-26.658,4.338-29.322,8.368S60.5,274.4,60.5,274.4" transform="translate(-14.359 -52.756)" fill="#2e2e2e"/>
        <path id="Path_11551" data-name="Path 11551" d="M118.78,256.451S176,263.778,166.7,278.264s-58.1,33.379-63.1,34.2-14.531-.55-23.334-3.576c0,0-23.749-8.07-32.185-18.706s70.7-33.735,70.7-33.735" transform="translate(-11.918 -64.406)" fill="#aaa"/>
        <path id="Path_11552" data-name="Path 11552" d="M92.44,294.47c7.29,4.126,19.521,6.052,29.567,3.576s36.742-18.4,56.047-32.138l.671-.478s-1.358-2.211-2.39-2.556c-19.785-6.594,27.716-17.262,27.716-17.262s8.2-12.556-2.361-19.944-50.738,13.754-50.738,13.754-15.013,8.088-23.651,10.729-34.984-1.45-37.554,2.64S92.44,294.47,92.44,294.47" transform="translate(-22.362 -56.282)" fill="#4d4d4d"/>
        <path id="Path_11553" data-name="Path 11553" d="M93.211,290.865c7.29,4.126,19.521,6.052,29.567,3.576s37.045-15.583,56.35-29.317,24.944-19.511,24.944-19.511,8.2-12.557-2.361-19.944-50.738,13.754-50.738,13.754-15.013,8.088-23.651,10.729-34.984-1.45-37.554,2.64,3.442,38.073,3.442,38.073" transform="translate(-22.384 -56.282)" fill="#2e2e2e"/>
      </g>
    </g>
    <g id="Group_2046" data-name="Group 2046" transform="translate(66.745 155.686)">
      <g id="Group_2045" data-name="Group 2045" clip-path="url(#clip-path-5)">
        <g id="Group_2044" data-name="Group 2044" transform="translate(55.907 -0.872)" opacity="0.5" style="mix-blend-mode: multiply;isolation: isolate">
          <g id="Group_2043" data-name="Group 2043">
            <g id="Group_2042" data-name="Group 2042" clip-path="url(#clip-path-6)">
              <path id="Path_11554" data-name="Path 11554" d="M208.264,254.848c1.284-6.236-3.168-18.339-12.313-22.557-4.105-1.894-16.625-3.676-22.985-7.591-7.807-4.8-9.181-11.662-9.181-11.662s36.169-9.694,58.85-5.038c9.357,1.921,19.091,15.279,18.822,18.56-.917,11.234-21.64,25.538-21.64,25.538Z" transform="translate(-163.786 -206.735)" fill="#8b8b8b"/>
            </g>
          </g>
        </g>
      </g>
    </g>
    <g id="Group_2048" data-name="Group 2048">
      <g id="Group_2047" data-name="Group 2047" clip-path="url(#clip-path-2)">
        <path id="Path_11556" data-name="Path 11556" d="M325.4,211.414,114.351,89.566l-57.04,33.129L268.357,244.542Z" transform="translate(-14.393 -22.494)" fill="#00a6ce"/>
        <path id="Path_11557" data-name="Path 11557" d="M419.181,232.781V226.79l-80.046,46.225v5.991Z" transform="translate(-85.172 -56.957)" fill="#93d3e6"/>
        <path id="Path_11558" data-name="Path 11558" d="M348.4,185.926,137.356,64.078,57.31,110.3,268.357,232.15Z" transform="translate(-14.393 -16.093)" fill="#c9c9c9"/>
        <path id="Path_11559" data-name="Path 11559" d="M258.595,229.994v-2.927l24.138-13.942v2.927Z" transform="translate(-64.945 -53.525)" fill="#dedede"/>
        <path id="Path_11560" data-name="Path 11560" d="M229.488,217.875,142.7,167.409v-2.539l86.79,50.108Z" transform="translate(-35.838 -41.406)" fill="#8b8b8b"/>
        <path id="Path_11561" data-name="Path 11561" d="M229.491,210.266,142.7,160.158l24.135-13.935,86.79,50.108Z" transform="translate(-35.839 -36.723)" fill="#fff"/>
        <path id="Path_11562" data-name="Path 11562" d="M229.742,210.241l-77.4-44.686c-.885-.511-.774-1.4.248-1.994a3.839,3.839,0,0,1,3.454-.143l77.4,44.686c.885.511.774,1.4-.248,1.994a3.839,3.839,0,0,1-3.454.143" transform="translate(-38.11 -40.955)" fill="#dedede"/>
        <path id="Path_11563" data-name="Path 11563" d="M236.463,204.17l-76.28-44.04c-1.194-.689-1.044-1.893.335-2.689l7.4-4.272a5.177,5.177,0,0,1,4.659-.193l76.28,44.04c1.194.689,1.044,1.893-.335,2.689l-7.4,4.272a5.177,5.177,0,0,1-4.659.193" transform="translate(-40.027 -38.302)" fill="#dedede"/>
        <path id="Path_11564" data-name="Path 11564" d="M248.556,175.9l-32.875-18.98,19.155-11.059,32.875,18.98Z" transform="translate(-54.167 -36.632)"/>
        <path id="Path_11565" data-name="Path 11565" d="M251.535,150.612l-12.068-6.967V86.776l12.068,6.967Z" transform="translate(-60.141 -21.793)"/>
        <path id="Path_11566" data-name="Path 11566" d="M267.65,143.645l-12.068,6.967V93.742l12.068-6.967Z" transform="translate(-64.188 -21.793)" fill="#dedede"/>
        <path id="Path_11567" data-name="Path 11567" d="M284.961,127.687l-94.7-54.676V2.2l94.7,54.676Z" transform="translate(-47.783 -0.553)"/>
        <path id="Path_11568" data-name="Path 11568" d="M281.967,123.142,196.585,73.847V11.45l85.381,49.3Z" transform="translate(-49.371 -2.876)" fill="#fff"/>
        <path id="Path_11569" data-name="Path 11569" d="M284.961,56.322l-94.7-54.676L193.11,0l94.7,54.676Z" transform="translate(-47.783 0)" fill="#c9c9c9"/>
        <path id="Path_11570" data-name="Path 11570" d="M316.721,145.485V74.713l2.85-1.646v70.773Z" transform="translate(-79.543 -18.35)" fill="#dedede"/>
        <path id="Path_11571" data-name="Path 11571" d="M248.52,182.087l-32.84-19V160.6l32.84,19Z" transform="translate(-54.167 -40.334)" fill="#8b8b8b"/>
        <path id="Path_11572" data-name="Path 11572" d="M278.725,173.547l-19.192,11.166v-2.488l19.192-11.166Z" transform="translate(-65.18 -42.961)" fill="#dedede"/>
        <path id="Path_11573" data-name="Path 11573" d="M100.831,283.733c8.115-.6,23-12.255,27.371-24.95,3.334-9.679,2.2-16.368,1.513-19.806,0,0-7.84-5.364-8.39-10.315s.413-12.792-1.925-17.606a32.716,32.716,0,0,0-29.435-7.565c-17.881,4.126-22.833,57.424-16.78,69.975s27.646,10.268,27.646,10.268" transform="translate(-17.763 -50.884)" fill="#dedede"/>
      </g>
    </g>
    <g id="Group_2053" data-name="Group 2053" transform="translate(52.964 151.725)">
      <g id="Group_2052" data-name="Group 2052" clip-path="url(#clip-path-8)">
        <g id="Group_2051" data-name="Group 2051" transform="translate(6.492 4.549)" opacity="0.5" style="mix-blend-mode: multiply;isolation: isolate">
          <g id="Group_2050" data-name="Group 2050">
            <g id="Group_2049" data-name="Group 2049" clip-path="url(#clip-path-9)">
              <path id="Path_11574" data-name="Path 11574" d="M126.336,235.552s-7.552,2.843-13.766-12.379c0,0-11.533,55.935,2.974,62.9,11.592,5.568,39.137-11.833,39.137-11.833s-23.384,18.679-40.989,20.941S79.4,274.992,79.4,274.992l8.341-54.544,18.435-11.763L124.19,212.2Z" transform="translate(-79.396 -208.684)" fill="#8b8b8b"/>
            </g>
          </g>
        </g>
      </g>
    </g>
    <g id="Group_2058" data-name="Group 2058">
      <g id="Group_2057" data-name="Group 2057" clip-path="url(#clip-path-2)">
        <path id="Path_11576" data-name="Path 11576" d="M175.379,292.234c2.629-8.694,5.1-21.226,5.834-38.652l-15.457,6.312c-.985,13.525-4.951,34.248-9.576,42.038.007,0,.292.106.673.253a4.1,4.1,0,0,0,3.756-.411c3.636-2.423,11.835-7.857,14.77-9.54" transform="translate(-39.224 -63.686)" fill="#8b8b8b"/>
        <g id="Group_2056" data-name="Group 2056" transform="translate(101.97 128.251)" opacity="0.5" style="mix-blend-mode: multiply;isolation: isolate">
          <g id="Group_2055" data-name="Group 2055">
            <g id="Group_2054" data-name="Group 2054" clip-path="url(#clip-path-11)">
              <path id="Path_11577" data-name="Path 11577" d="M193.5,179.587a3.667,3.667,0,0,0-.443-.614l.425.319c1.259.427,1.24-.312,1.24-.312s-.825-1.467-1.008-1.742a1.837,1.837,0,0,0-.265-.256l.009,0s-.6-1.216-.773-1.491a4.812,4.812,0,0,0-1.668-1.448,5.022,5.022,0,0,0-.542-.213h0a1.3,1.3,0,0,0-.232-.747c-.275-.493-4.573-1.607-5.4-1.791a20.21,20.21,0,0,0-6.2.954c-1.264.55-2.751,1.743-5.685,2.109s-29.817-2.6-36.771-2.292c0,0-.366,2.7,2.2,7.357a26.291,26.291,0,0,0,6.854,7.717c6.97-.792,27.448-5.178,29.251-5.01s2.957,1.215,4.7,1.49,4.715.66,5.318.409a14.586,14.586,0,0,1,3.484-.684c.825,0-.156-2.2-2.7-1.7-1.567.311-1.641.6-2.346.074-.443-.331-.2-.766.482-.956,1.1-.306,2.74-.736,3.785-.906,1.7-.275,2.984-.091,3.488.321s2.766,1.776,3.225,2.1a1.818,1.818,0,0,0,1.788.369c.78-.278-1.161-1.182-2.216-3.062" transform="translate(-136.168 -171.263)" fill="#8b8b8b"/>
            </g>
          </g>
        </g>
        <path id="Path_11578" data-name="Path 11578" d="M183.137,254.582,168.642,261.2c-.954,13.115-3.6,27.79-7.719,39.527a1.093,1.093,0,0,0,1.5,1.349c4.7-2.238,9.442-4.665,13.843-7.176a1.839,1.839,0,0,0,.851-1.058c2.7-8.713,5.27-21.428,6.016-39.256" transform="translate(-40.399 -63.937)" fill="#dedede"/>
        <path id="Path_11579" data-name="Path 11579" d="M164.443,235.734s-34.936,14-35.872,18.046c-.941,4.065,7.467,8.331,12.176,8.088,3.007-.155,45.7-18.614,48.18-19.806s5.135-4.126,4.584-7.336-10.984-6.694-10.984-6.694Z" transform="translate(-32.272 -57.269)" fill="#00a6ce"/>
      </g>
    </g>
    <g id="Group_2063" data-name="Group 2063" transform="translate(96.227 170.762)">
      <g id="Group_2062" data-name="Group 2062" clip-path="url(#clip-path-12)">
        <g id="Group_2061" data-name="Group 2061" transform="translate(5.605 -27.251)" opacity="0.5" style="mix-blend-mode: multiply;isolation: isolate">
          <g id="Group_2060" data-name="Group 2060">
            <g id="Group_2059" data-name="Group 2059" clip-path="url(#clip-path-13)">
              <path id="Path_11580" data-name="Path 11580" d="M216.756,198.845a9.29,9.29,0,0,0-1.044-.517c1.719-.15,1.781-.9,1.823-1.245.046-.366-1.009-.687-1.467-.917a10.978,10.978,0,0,0-2.344-.625l.464-.1c1.743-.4,1.683-1.57,1.087-1.662-.3-.046-1.521-.2-2.745-.332l.618-.141c.281-.206.261-.742-.061-.834a22.9,22.9,0,0,0-2.888-.816,23.029,23.029,0,0,0-4.814.288,20.2,20.2,0,0,0-3.539,2.181c.277-.822-.071-2.376-.622-2.443s-.962,1.064-1.375,1.623-3.451,2.49-4.185,3.192-1.742,3.884-2.384,4.892-18.788,13.354-29.249,19.011c-3.56-5.956-13.94-20.551-13.94-20.551s-4.539-4.259-9.9.749-4.068,27-4.068,27,7.128,7.96,26.381,8.26a5.222,5.222,0,0,0,1.89-.33,59.088,59.088,0,0,0,14.31-7.93c8.115-6.051,16.963-14.719,19.941-16.826a20.616,20.616,0,0,1,6.192-3.047c3.209-.917,7.907-6.142,8.939-6.774a6.546,6.546,0,0,1,3.348-.708c1.107.083.428-.938-.367-1.4" transform="translate(-135.984 -191.641)" fill="#8b8b8b"/>
            </g>
          </g>
        </g>
      </g>
    </g>
    <g id="Group_2065" data-name="Group 2065">
      <g id="Group_2064" data-name="Group 2064" clip-path="url(#clip-path-2)">
        <path id="Path_11582" data-name="Path 11582" d="M216.023,197.845a9.291,9.291,0,0,0-1.044-.517c1.719-.15,1.781-.9,1.823-1.245.046-.366-1.009-.687-1.467-.917a10.977,10.977,0,0,0-2.344-.625l.464-.1c1.743-.4,1.683-1.57,1.087-1.662-.3-.046-1.521-.2-2.745-.332l.618-.141c.281-.206.261-.742-.061-.834a22.9,22.9,0,0,0-2.888-.816,23.03,23.03,0,0,0-4.814.288,20.2,20.2,0,0,0-3.539,2.181c.277-.822-.071-2.376-.622-2.443s-.962,1.064-1.375,1.623-3.451,2.49-4.185,3.192-1.742,3.884-2.384,4.892-20.081,8.16-30.541,13.818c-3.561-5.956-14.3-16.366-14.3-16.366s-2.888-3.251-8.253,1.758-6.393,13.111-6.393,13.111,11.567,14.329,26.447,21.4a5.435,5.435,0,0,0,3.69.374,34.945,34.945,0,0,0,11.881-6.079c8.115-6.052,19.927-19.711,22.83-20.927a41.654,41.654,0,0,1,6.329-1.951c3.21-.917,6.511-5.456,7.7-5.96a7.712,7.712,0,0,1,2.247-.688c.5.092,1.5.315,2.2.367,1.107.083.428-.938-.367-1.4" transform="translate(-33.418 -47.878)" fill="#5f0000"/>
        <path id="Path_11583" data-name="Path 11583" d="M193.408,178.587a3.669,3.669,0,0,0-.443-.614l.425.319c1.259.427,1.24-.312,1.24-.312s-.825-1.467-1.008-1.742a1.837,1.837,0,0,0-.265-.256l.009,0s-.6-1.216-.773-1.491a4.812,4.812,0,0,0-1.668-1.448,5.025,5.025,0,0,0-.542-.213h0a1.3,1.3,0,0,0-.232-.747c-.275-.493-4.573-1.607-5.4-1.791a20.211,20.211,0,0,0-6.2.954c-1.264.55-2.751,1.743-5.685,2.109s-33.083-1.838-40.036-1.532a19.756,19.756,0,0,1,5.466,6.6,13.613,13.613,0,0,0,6.969,6.09c6.97-.792,27.448-5.179,29.251-5.011s2.843,2.843,4.585,3.118,4.715.66,5.318.409a14.586,14.586,0,0,1,3.484-.684c.825,0-.156-2.2-2.7-1.7a4.342,4.342,0,0,1-3.489-.842c-.442-.332-.2-.767.482-.957,1.1-.306,2.741-.736,3.786-.905a7.879,7.879,0,0,1,4.63,1.238c.5.413,2.017,2.154,2.476,2.476a1.818,1.818,0,0,0,1.788.37c.78-.279-.412-1.562-1.466-3.442" transform="translate(-33.36 -42.761)" fill="#5f0000"/>
      </g>
    </g>
    <g id="Group_2070" data-name="Group 2070" transform="translate(99.471 127.502)">
      <g id="Group_2069" data-name="Group 2069" clip-path="url(#clip-path-15)">
        <g id="Group_2068" data-name="Group 2068" transform="translate(-1.676 0)" opacity="0.5" style="mix-blend-mode: multiply;isolation: isolate">
          <g id="Group_2067" data-name="Group 2067">
            <g id="Group_2066" data-name="Group 2066" clip-path="url(#clip-path-16)">
              <path id="Path_11584" data-name="Path 11584" d="M189.821,172.834a1.294,1.294,0,0,0-.232-.746c-.275-.494-4.573-1.607-5.4-1.791a20.183,20.183,0,0,0-6.2.954c-1.264.55-2.751,1.742-5.685,2.109s-34.76-2.807-41.713-2.5l4.4,6.529s25.58-2.721,29.775-2.79,7.428.55,8.8,0c0,0,4.127-2.2,5.089-2.476s4.883-1.307,5.536-1.169,5.631,1.88,5.631,1.88" transform="translate(-130.593 -170.263)" fill="#8b8b8b"/>
            </g>
          </g>
        </g>
      </g>
    </g>
    <g id="Group_2072" data-name="Group 2072">
      <g id="Group_2071" data-name="Group 2071" clip-path="url(#clip-path-2)">
        <path id="Path_11586" data-name="Path 11586" d="M149.437,186.183c6.969-.792,27.448-5.179,29.251-5.01s2.843,2.843,4.585,3.117,4.715.66,5.318.41a14.549,14.549,0,0,1,3.484-.684c.825,0-.156-2.2-2.706-1.7a4.544,4.544,0,0,1-4.172-1.467s3.255-.962,4.951-1.238a7.888,7.888,0,0,1,4.631,1.238c.5.413,2.017,2.155,2.476,2.476a1.817,1.817,0,0,0,1.788.37c.78-.278-.412-1.562-1.466-3.442s-3.907-2.746-6.007-3.347" transform="translate(-37.53 -44.43)" fill="none" stroke="#8f0000" stroke-linecap="round" stroke-linejoin="round" stroke-width="0.993"/>
        <path id="Path_11587" data-name="Path 11587" d="M204.738,174.261a18.13,18.13,0,0,1,4.3,1.158,11.9,11.9,0,0,1,2.644,1.823c.183.276,1.009,1.743,1.009,1.743s.018.738-1.24.312" transform="translate(-51.419 -43.765)" fill="none" stroke="#8f0000" stroke-linecap="round" stroke-linejoin="round" stroke-width="0.993"/>
        <path id="Path_11588" data-name="Path 11588" d="M202.167,172.021a26.7,26.7,0,0,1,6.172,1.467,4.82,4.82,0,0,1,1.668,1.448c.173.276.894,1.346.894,1.346" transform="translate(-50.773 -43.202)" fill="none" stroke="#8f0000" stroke-linecap="round" stroke-linejoin="round" stroke-width="0.964"/>
        <path id="Path_11589" data-name="Path 11589" d="M231.6,197.083a35.1,35.1,0,0,1,4.975-1.364,10.647,10.647,0,0,1,3.507.722c.458.229,1.513.55,1.467.917s-.112,1.2-2.211,1.267" transform="translate(-58.165 -49.153)" fill="none" stroke="#8f0000" stroke-linecap="round" stroke-linejoin="round" stroke-width="1"/>
        <path id="Path_11590" data-name="Path 11590" d="M228.968,194.286a31.256,31.256,0,0,1,4.172-1.522c.734-.046,4.893.459,5.489.55s.654,1.261-1.087,1.662" transform="translate(-57.504 -48.411)" fill="none" stroke="#8f0000" stroke-linecap="round" stroke-linejoin="round" stroke-width="1"/>
        <path id="Path_11591" data-name="Path 11591" d="M218.927,195.73c1.7-1.068,6.144-4.461,7.29-4.781a22.969,22.969,0,0,1,4.814-.288,22.653,22.653,0,0,1,2.888.815c.321.091.341.628.061.834" transform="translate(-54.982 -47.879)" fill="none" stroke="#8f0000" stroke-linecap="round" stroke-linejoin="round" stroke-width="1"/>
        <path id="Path_11592" data-name="Path 11592" d="M219.658,209.55a41.8,41.8,0,0,1,6.329-1.951c3.21-.917,6.511-5.456,7.7-5.96a7.685,7.685,0,0,1,2.247-.687c.5.091,1.5.314,2.2.366,1.108.083.428-.938-.366-1.4a7.226,7.226,0,0,0-3.026-1.028,37.407,37.407,0,0,0-4.814,1.238" transform="translate(-55.166 -49.95)" fill="none" stroke="#8f0000" stroke-linecap="round" stroke-linejoin="round" stroke-width="1"/>
        <path id="Path_11593" data-name="Path 11593" d="M81.325,139.878c13.138,7.8,17.588,11.98,19.445,13.791,10.184,9.937,30.979,42.226,30.979,42.226s7.292-2.809,9.881-3.772c2.909-1.082,12.719,6.824,9.629,15.472-2.613,3-10.328,8.461-18.813,11.264-12.612-2.28-33.866-23.984-33.866-23.984s-31.635,7.289-37.137,1.237S18.254,171.4,18.254,171.4l-1.949-28.341s4.745-17.838,26.454-19.115c0,0,25.428,8.136,38.566,15.938" transform="translate(-4.095 -31.127)" fill="#dedede"/>
      </g>
    </g>
    <g id="Group_2077" data-name="Group 2077" transform="translate(12.21 92.813)">
      <g id="Group_2076" data-name="Group 2076" clip-path="url(#clip-path-18)">
        <g id="Group_2075" data-name="Group 2075" transform="translate(-7.221 -12.097)" opacity="0.5">
          <g id="Group_2074" data-name="Group 2074">
            <g id="Group_2073" data-name="Group 2073" clip-path="url(#clip-path-19)">
              <path id="Path_11594" data-name="Path 11594" d="M60.732,126.93c-17-3.9-19.546,4.7-23.03,1.03s-13.314-.917-13.617,6.785S36.445,151.334,41.69,154.2c17.056,9.333,39.8,14.311,48.416,20.717l-22.843,9.889L24.818,162.733,8.679,144.465,6.662,125.4l17.055-15.256,28.549-2.36Z" transform="translate(-6.662 -107.786)" fill="#8b8b8b"/>
            </g>
          </g>
        </g>
      </g>
    </g>
    <g id="Group_2091" data-name="Group 2091">
      <g id="Group_2090" data-name="Group 2090" clip-path="url(#clip-path-2)">
        <path id="Path_11596" data-name="Path 11596" d="M84.52,285.652l5.777-2.476s-8.124-15.754-3.237-45.564,14.624-34.759,12.24-45.763-25.889-12.406-47.149-20.726C30.6,162.687,19.6,145.291,10.936,145.291c0,0-5.415,1.582-7.891,5.056" transform="translate(-0.765 -36.489)" fill="#93d3e6"/>
        <path id="Path_11597" data-name="Path 11597" d="M83.756,286.512c-10.178,1.1-45.664-3.3-68.5-36.587,0,0-2.751-38.84-9.628-62.61s-7.7-34.152-1.1-38.038,13.625,13.233,42.089,25.486c29.16,12.552,43.3,11.891,45.718,19.869S81.368,221.9,80.18,243.873c-1.682,31.111,3.576,42.639,3.576,42.639" transform="translate(0 -37.349)" fill="#00a6ce"/>
        <path id="Path_11598" data-name="Path 11598" d="M147.968,261.487s38.512-15.13,48.6-21.824" transform="translate(-37.161 -60.19)" fill="none" stroke="#fff" stroke-linecap="round" stroke-linejoin="round" stroke-width="0.993"/>
        <g id="Group_2080" data-name="Group 2080" transform="translate(0 111.928)" opacity="0.25">
          <g id="Group_2079" data-name="Group 2079">
            <g id="Group_2078" data-name="Group 2078" clip-path="url(#clip-path-21)">
              <path id="Path_11599" data-name="Path 11599" d="M4.531,149.466c-6.6,3.887-5.777,14.269,1.1,38.038s9.629,62.61,9.629,62.61C38.091,283.4,73.578,287.8,83.757,286.7c0,0-38.308-5.541-48.267-25.832s-7.576-47.251-17.662-68.341S1.321,161.9,4.531,149.466" transform="translate(0 -149.466)" fill="#6c6c6c"/>
            </g>
          </g>
        </g>
        <path id="Path_11600" data-name="Path 11600" d="M185.128,259.429q.149-2.358.254-4.847L170.888,261.2c-.249,3.424-.613,6.955-1.089,10.512Z" transform="translate(-42.644 -63.937)" fill="#c9c9c9"/>
        <g id="Group_2083" data-name="Group 2083" transform="translate(221.033 152.25)" opacity="0.25">
          <g id="Group_2082" data-name="Group 2082">
            <g id="Group_2081" data-name="Group 2081" clip-path="url(#clip-path-22)">
              <path id="Path_11601" data-name="Path 11601" d="M321.928,216.025c1.8,1.041,1.812,2.729.021,3.769a7.172,7.172,0,0,1-6.508,0c-1.8-1.041-1.811-2.729-.02-3.77a7.171,7.171,0,0,1,6.508,0l-6.487,3.77-16.653-6.86,12.974-7.539Z" transform="translate(-296.072 -203.834)" fill="#8b8b8b"/>
              <path id="Path_11602" data-name="Path 11602" d="M310.851,204.871a14.342,14.342,0,0,0-13.015,0c-3.582,2.082-3.565,5.458.04,7.54a14.349,14.349,0,0,0,13.017,0c3.582-2.082,3.563-5.457-.043-7.539" transform="translate(-295.161 -203.31)" fill="#8b8b8b"/>
            </g>
          </g>
        </g>
        <path id="Path_11603" data-name="Path 11603" d="M327.887,219.646a6.451,6.451,0,0,0-5.853,0c-1.612.936-1.6,2.455.018,3.391a6.45,6.45,0,0,0,5.854,0c1.612-.936,1.6-2.454-.019-3.39" transform="translate(-80.575 -54.987)" fill="#8b8b8b"/>
        <path id="Path_11604" data-name="Path 11604" d="M336.8,213c1.833.592,2.111,1.571,1.519,3.4a3.409,3.409,0,0,1-4.389,2.1" transform="translate(-83.865 -53.494)" fill="none" stroke="#f1f1f2" stroke-miterlimit="10" stroke-width="1.665"/>
        <path id="Path_11605" data-name="Path 11605" d="M323.271,209.749h-9.2c0,7.257,5.065,11.68,9.2,11.68s9.2-4.423,9.2-11.68Z" transform="translate(-78.877 -52.677)" fill="#f1f1f2"/>
        <path id="Path_11606" data-name="Path 11606" d="M329.758,204.191a14.342,14.342,0,0,0-13.015,0c-3.582,2.082-3.565,5.458.04,7.54a14.349,14.349,0,0,0,13.017,0c3.582-2.082,3.563-5.457-.043-7.539" transform="translate(-78.877 -50.889)" fill="#aaa"/>
        <path id="Path_11607" data-name="Path 11607" d="M330.3,213.352a8.345,8.345,0,0,0,1.171-1.088,7.49,7.49,0,0,0-1.214-.865,14.34,14.34,0,0,0-13.014,0,7.415,7.415,0,0,0-1.173.835,8.412,8.412,0,0,0,1.214,1.12,14.345,14.345,0,0,0,13.017,0" transform="translate(-79.38 -52.7)"/>
        <path id="Path_11608" data-name="Path 11608" d="M329.638,204.388a13.834,13.834,0,0,0-12.555,0c-3.455,2.008-3.439,5.265.039,7.274a13.839,13.839,0,0,0,12.558,0c3.455-2.008,3.437-5.264-.041-7.272" transform="translate(-78.986 -50.953)" fill="none" stroke="#aaa" stroke-miterlimit="10" stroke-width="0.57"/>
        <path id="Path_11609" data-name="Path 11609" d="M116.412,91.881c-1.009,5.312-3.3,5.5-5.916,9.64-2.266,3.578-2.587,5.843-4.555,6.6-5.348,2.063-23.734-7.4-25.98-20.576S85.5,52.489,98.244,49.7s19.149,5.429,19.149,5.429c2.384,5.5,4.016,15.5,2.953,18.187s-2.384,4.561-2.384,6.973a25.627,25.627,0,0,0,1.269,7.818c.363,1.788-.062,3.609-2.819,3.771" transform="translate(-19.985 -12.337)" fill="#5f0000"/>
        <g id="Group_2086" data-name="Group 2086" transform="translate(59.976 75.209)" opacity="0.2">
          <g id="Group_2085" data-name="Group 2085">
            <g id="Group_2084" data-name="Group 2084" clip-path="url(#clip-path-23)">
              <path id="Path_11610" data-name="Path 11610" d="M80.09,100.432c2.245,13.174,20.632,22.639,25.98,20.576,1.968-.759-5.861-2.506-7.921-14.573Z" transform="translate(-80.09 -100.432)"/>
            </g>
          </g>
        </g>
        <path id="Path_11611" data-name="Path 11611" d="M86.874,132.658c-2.384-2.745-8.069-16.414,7.671-34.019,0,0-16.138-8.725-25.858-3.886s-11.37-4.656-11,0,3.681,19.055-7.191,21.491c-7.691,1.722-.708,13.386,5.2,16.414s21.721,5.6,31.177,0" transform="translate(-11.829 -23.43)" fill="#5f0000"/>
        <path id="Path_11612" data-name="Path 11612" d="M71.427,37.8C58.1,42.171,52.721,53.358,52.9,61.427s4.648,14.415,6.084,22.521,5.058,10.673,9.757,11.223S82.8,93.7,85,88.386,92.615,72.012,96.766,71.7s7.855-1.467,8.405-3.668,2.211-7.118,7.983-8.052c0,0,3.529-6.912-8.737-17.036S84.753,33.428,71.427,37.8" transform="translate(-13.286 -8.739)"/>
        <path id="Path_11613" data-name="Path 11613" d="M57.8,20.943c-2.259,3.675-5.56,20.793.767,25.92s12.379,7.327,19.256,4.713S90.2,42.838,88.549,33.728,81.351,15.5,75.878,14.906Z" transform="translate(-13.787 -3.744)"/>
        <path id="Path_11614" data-name="Path 11614" d="M80.782,18.62c1.3,4.1-2.891,9.1-9.37,11.16s-12.789.4-14.093-3.7,2.89-9.1,9.369-11.16,12.79-.4,14.094,3.7" transform="translate(-14.336 -3.524)"/>
        <path id="Path_11615" data-name="Path 11615" d="M80.782,18.62c1.3,4.1-2.891,9.1-9.37,11.16s-12.789.4-14.093-3.7,2.89-9.1,9.369-11.16S79.478,14.516,80.782,18.62Z" transform="translate(-14.336 -3.524)" fill="none" stroke="#2e2e2e" stroke-miterlimit="10" stroke-width="1"/>
        <path id="Path_11616" data-name="Path 11616" d="M114.254,83.093l18.017,3.317s-1.028,5.9-5.053,4.457" transform="translate(-28.694 -20.868)" fill="none" stroke="#e00" stroke-linecap="round" stroke-linejoin="round" stroke-width="2"/>
        <path id="Path_11617" data-name="Path 11617" d="M114.122,86.046s1.1-4.951-1.994-4.883-5.914,3.3-6.258,6.4.4,7.751,2.063,8.184a2.643,2.643,0,0,0,3.026-1.513" transform="translate(-26.568 -20.384)" fill="#5f0000"/>
        <path id="Path_11618" data-name="Path 11618" d="M114.122,86.046s1.1-4.951-1.994-4.883-5.914,3.3-6.258,6.4.4,7.751,2.063,8.184a2.643,2.643,0,0,0,3.026-1.513" transform="translate(-26.568 -20.384)" fill="none" stroke="#8f0000" stroke-linecap="round" stroke-linejoin="round" stroke-width="1"/>
        <path id="Path_11619" data-name="Path 11619" d="M119.642,64.747s1.034-15.682-19.8-24.705" transform="translate(-25.074 -10.056)" fill="none" stroke="#2e2e2e" stroke-linecap="round" stroke-linejoin="round" stroke-width="1"/>
        <path id="Path_11620" data-name="Path 11620" d="M126.522,62.178s-.066-11.469-15.043-19.86" transform="translate(-27.997 -10.628)" fill="none" stroke="#2e2e2e" stroke-linecap="round" stroke-linejoin="round" stroke-width="1"/>
        <path id="Path_11621" data-name="Path 11621" d="M115.546,68.956s-4.5-12.715-15.315-18.52" transform="translate(-25.173 -12.667)" fill="none" stroke="#2e2e2e" stroke-linecap="round" stroke-linejoin="round" stroke-width="1"/>
        <path id="Path_11622" data-name="Path 11622" d="M77.216,100.432c.9-6.378-6.511-23.41-1.981-33.572" transform="translate(-18.524 -16.792)" fill="none" stroke="#2e2e2e" stroke-linecap="round" stroke-linejoin="round" stroke-width="1"/>
        <path id="Path_11623" data-name="Path 11623" d="M69.43,100.053c.46-11.88-10.557-25.161-5.044-34.7" transform="translate(-15.782 -16.413)" fill="none" stroke="#2e2e2e" stroke-linecap="round" stroke-linejoin="round" stroke-width="1"/>
        <path id="Path_11624" data-name="Path 11624" d="M63.826,95.829C63.018,82.8,51.509,70.358,57.791,60.5" transform="translate(-14.045 -15.194)" fill="none" stroke="#2e2e2e" stroke-linecap="round" stroke-linejoin="round" stroke-width="1"/>
        <path id="Path_11625" data-name="Path 11625" d="M87.876,22.308c2.616,2.6,3.04,6.658,2.889,10.342a21.465,21.465,0,0,1-2.35,9.822c-3.2,5.607-9.847,8.225-16.159,9.578" transform="translate(-18.147 -5.603)" fill="none" stroke="#2e2e2e" stroke-linecap="round" stroke-linejoin="round" stroke-width="1"/>
        <path id="Path_11626" data-name="Path 11626" d="M82.058,25.087a29.3,29.3,0,0,1-20.012,18.9" transform="translate(-15.583 -6.3)" fill="none" stroke="#2e2e2e" stroke-linecap="round" stroke-linejoin="round" stroke-width="1"/>
        <path id="Path_11627" data-name="Path 11627" d="M131.443,79.727a5.325,5.325,0,0,1,2.521.178.582.582,0,0,1-.46,1.069,4.558,4.558,0,0,0-2.054-.5.376.376,0,0,1-.007-.748" transform="translate(-32.928 -20.007)"/>
        <g id="Group_2089" data-name="Group 2089" transform="translate(35.272 66.11)" opacity="0.2">
          <g id="Group_2088" data-name="Group 2088">
            <g id="Group_2087" data-name="Group 2087" clip-path="url(#clip-path-24)">
              <path id="Path_11628" data-name="Path 11628" d="M62.423,94.83c-.723-10.834-5.1-5.991-4.738-1.335s3.681,19.055-7.191,21.49c-7.691,1.723-.708,13.386,5.2,16.414,0,0-4.993-4.5-2.759-8.391s10.828-8.023,9.484-28.178" transform="translate(-47.101 -88.282)"/>
            </g>
          </g>
        </g>
      </g>
    </g>
    <g id="Group_2096" data-name="Group 2096" transform="translate(12.21 92.813)">
      <g id="Group_2095" data-name="Group 2095" clip-path="url(#clip-path-25)">
        <g id="Group_2094" data-name="Group 2094" transform="translate(114.237 49.981)" opacity="0.5" style="mix-blend-mode: multiply;isolation: isolate">
          <g id="Group_2093" data-name="Group 2093">
            <g id="Group_2092" data-name="Group 2092" clip-path="url(#clip-path-26)">
              <path id="Path_11629" data-name="Path 11629" d="M208.105,192.32c-.413.559-3.45,2.49-4.184,3.192s-1.742,3.884-2.384,4.892-21.345,5.428-32.682,10.4l4.532,7.575s5.363-4.02,13.141-8.709c7.376-4.447,15.285-7.727,15.766-8.553s2.338-5.261,2.888-5.6,3.2-1.926,3.439-2.51a6.865,6.865,0,0,1,.86-2.3c-.619-.191-1.376,1.623-1.376,1.623" transform="translate(-168.854 -190.683)" fill="#8b8b8b"/>
            </g>
          </g>
        </g>
      </g>
    </g>
    <g id="Group_2098" data-name="Group 2098">
      <g id="Group_2097" data-name="Group 2097" clip-path="url(#clip-path-2)">
        <path id="Path_11631" data-name="Path 11631" d="M212.3,72.087a2.624,2.624,0,0,1-.621-.514,2.8,2.8,0,0,1-.758-2.748l9.685-19.2c.49-.974,2.27.055,2.76,1.593L233.046,81.6c.284.89.106,1.644-.434,1.832s-1.3-.245-1.855-1.038L217.8,63.676l-4.125,8.179c-.253.5-.8.565-1.381.232m6.782-10.94,8.786,12.7-5.882-18.453Z" transform="translate(-52.937 -12.368)" fill="#e00"/>
        <path id="Path_11632" data-name="Path 11632" d="M261.112,93.073c0,3.062-2.15,4.3-4.8,2.772a10.614,10.614,0,0,1-4.8-8.316c0-3.062,2.149-4.3,4.8-2.772a10.612,10.612,0,0,1,4.8,8.316" transform="translate(-63.165 -21.122)" fill="#dedede"/>
        <path id="Path_11633" data-name="Path 11633" d="M284.354,106.492c0,3.062-2.15,4.3-4.8,2.772a10.614,10.614,0,0,1-4.8-8.316c0-3.062,2.149-4.3,4.8-2.772a10.612,10.612,0,0,1,4.8,8.316" transform="translate(-69.002 -24.492)" fill="#dedede"/>
      </g>
    </g>
  </g>
</svg>
